<svg width="87" height="35" viewBox="0 0 87 35" fill="none" xmlns="http://www.w3.org/2000/svg">
<path d="M0 33.6H2.36L6.7 22.34H21.2L25.52 33.6H27.88L14.96 0.599999H12.92L0 33.6ZM7.44 20.4L13.94 3.44L20.46 20.4H7.44Z" fill="white"/>
<path d="M35.0859 33.6H37.2659V19.34H41.5659L52.3459 33.6H55.1259L44.1059 19.18C46.9326 18.98 49.1793 18.0333 50.8459 16.34C52.5259 14.6467 53.3659 12.4533 53.3659 9.76C53.3659 6.92 52.4326 4.68667 50.5659 3.06C48.7126 1.42 46.1859 0.599999 42.9859 0.599999H35.0859V33.6ZM37.2659 17.4V2.4H42.5859C45.2526 2.4 47.3526 3.06 48.8859 4.38C50.4193 5.7 51.1859 7.50667 51.1859 9.8C51.1859 12.12 50.4059 13.9667 48.8459 15.34C47.2993 16.7133 45.2126 17.4 42.5859 17.4H37.2659Z" fill="white"/>
<path d="M75.7487 34.24C77.8421 34.24 79.7887 33.9333 81.5888 33.32C83.4021 32.6933 85.0088 31.84 86.4088 30.76L85.3088 28.96C82.7488 31.04 79.6088 32.08 75.8888 32.08C73.6888 32.08 71.6687 31.7 69.8288 30.94C68.0021 30.1667 66.4221 29.1 65.0888 27.74C63.7554 26.38 62.7221 24.7933 61.9888 22.98C61.2554 21.1667 60.8888 19.2133 60.8888 17.12C60.8888 15.0267 61.2554 13.0733 61.9888 11.26C62.7221 9.44667 63.7554 7.86 65.0888 6.5C66.4221 5.14 68.0021 4.08 69.8288 3.32C71.6687 2.54667 73.6888 2.16 75.8888 2.16C79.6088 2.16 82.7488 3.2 85.3088 5.28L86.4088 3.48C84.9954 2.38667 83.3821 1.53333 81.5688 0.92C79.7688 0.306667 77.8288 0 75.7487 0C73.2821 0 70.9954 0.433333 68.8888 1.3C66.7954 2.16667 64.9688 3.37333 63.4088 4.92C61.8488 6.46667 60.6354 8.28 59.7688 10.36C58.9154 12.44 58.4888 14.6933 58.4888 17.12C58.4888 19.5467 58.9154 21.8 59.7688 23.88C60.6354 25.96 61.8488 27.7733 63.4088 29.32C64.9688 30.8667 66.7954 32.0733 68.8888 32.94C70.9821 33.8067 73.2687 34.24 75.7487 34.24Z" fill="white"/>
</svg>
