<svg width="48" height="48" viewBox="0 0 48 48" fill="none" xmlns="http://www.w3.org/2000/svg">
<path fill-rule="evenodd" clip-rule="evenodd" d="M1 24C1 36.7025 11.2975 47 24 47C36.7025 47 47 36.7025 47 24C47 11.2975 36.7025 1 24 1C11.2975 1 1 11.2975 1 24ZM24 0C10.7452 0 0 10.7452 0 24C0 37.2548 10.7452 48 24 48C37.2548 48 48 37.2548 48 24C48 10.7452 37.2548 0 24 0Z" fill="white" fill-opacity="0.300385"/>
<path fill-rule="evenodd" clip-rule="evenodd" d="M24.1983 12V13.7067C23.9655 13.6593 23.7244 13.6341 23.4774 13.6341C23.2304 13.6341 22.9893 13.6593 22.7565 13.7067V12H24.1983ZM23.448 21.1005L22.3996 23.7708L18.5545 23.7708L20.4966 18.9237C21.1225 19.889 22.2243 20.5315 23.4774 20.5315C24.7069 20.5315 25.791 19.913 26.4226 18.9779L28.3442 23.7708H24.4974L23.448 21.1005ZM25.5633 17.0828C25.5633 18.2091 24.6294 19.1221 23.4774 19.1221C22.3254 19.1221 21.3915 18.2091 21.3915 17.0828C21.3915 15.9566 22.3254 15.0436 23.4774 15.0436C24.6294 15.0436 25.5633 15.9566 25.5633 17.0828ZM15.2527 26.5842V25.1803H32V26.5842H29.4722L31.8945 32.6258L30.9227 32.9992L31.901 35.4293L30.5594 35.9455L29.5809 33.5147L28.4913 33.9332L25.6031 26.5842H24.1983V28.3682H22.7565V26.5842H21.2951L18.4098 33.9332L17.3391 33.5219L16.3416 36L15 35.4838L15.9972 33.0064L15.0064 32.6258L17.4272 26.5842H15.2527Z" fill="white"/>
</svg>
